<?xml version="1.0" encoding="UTF-8" standalone="no"?>
<!-- Created with Inkscape (http://www.inkscape.org/) -->
<svg
   xmlns:dc="http://purl.org/dc/elements/1.1/"
   xmlns:cc="http://web.resource.org/cc/"
   xmlns:rdf="http://www.w3.org/1999/02/22-rdf-syntax-ns#"
   xmlns:svg="http://www.w3.org/2000/svg"
   xmlns="http://www.w3.org/2000/svg"
   xmlns:sodipodi="http://sodipodi.sourceforge.net/DTD/sodipodi-0.dtd"
   xmlns:inkscape="http://www.inkscape.org/namespaces/inkscape"
   width="455"
   height="540"
   id="svg2"
   sodipodi:version="0.32"
   inkscape:version="0.45.1"
   version="1.0"
   sodipodi:docbase="C:\Documents and Settings\Administrator"
   sodipodi:docname="dibujo-1.svg"
   inkscape:output_extension="org.inkscape.output.svg.inkscape">
  <defs
     id="defs4" />
  <sodipodi:namedview
     id="base"
     pagecolor="#ffffff"
     bordercolor="#666666"
     borderopacity="1.0"
     inkscape:pageopacity="0.0"
     inkscape:pageshadow="2"
     inkscape:zoom="0.7"
     inkscape:cx="307.50178"
     inkscape:cy="179.6861"
     inkscape:document-units="px"
     inkscape:current-layer="layer1"
     inkscape:window-width="1024"
     inkscape:window-height="712"
     inkscape:window-x="-4"
     inkscape:window-y="-4"
     showguides="true"
     inkscape:guide-bbox="true" />
  <metadata
     id="metadata7">
    <rdf:RDF>
      <cc:Work
         rdf:about="">
        <dc:format>image/svg+xml</dc:format>
        <dc:type
           rdf:resource="http://purl.org/dc/dcmitype/StillImage" />
      </cc:Work>
    </rdf:RDF>
  </metadata>
  <g
     inkscape:label="Capa 1"
     inkscape:groupmode="layer"
     id="layer1"
     transform="translate(-122.5,-262.36218)">
    <path
       style="fill:#f4e4e4;fill-opacity:0;fill-rule:evenodd;stroke:#290000;stroke-width:3;stroke-linecap:butt;stroke-linejoin:miter;stroke-miterlimit:4;stroke-dasharray:none;stroke-opacity:1"
       d="M 422.47321,283.11219 L 417.66071,284.01844 L 413.12946,288.42469 L 409.81696,295.61219 L 407.31696,312.92469 L 405.53571,316.33094 L 403.62946,318.61219 L 399.72321,320.36219 L 393.41071,323.76844 L 386.59821,328.08094 L 380.66071,333.36219 C 380.6607,333.36219 378.13327,337.28953 377.75446,338.29969 C 377.37565,339.30984 375.59821,343.73719 375.59821,343.73719 C 375.59822,343.73719 374.60201,348.38582 374.22321,349.14344 C 373.84439,349.90105 371.56696,354.70594 371.56696,354.70594 L 366.37946,360.39344 L 363.50446,362.67469 L 357.03571,367.83094 L 337.22321,367.58094 L 328.00446,363.42469 L 319.81696,362.92469 L 313.34821,355.73719 L 301.09821,348.01844 L 286.59821,340.95594 L 270.81696,334.39344 L 266.00446,336.01844 L 258.06696,336.64344 L 245.81696,336.26844 L 244.66071,335.39344 L 247.31696,327.70594 L 242.00446,323.76844 L 237.59821,320.23719 L 233.06696,320.48719 L 233.81696,324.26844 L 239.62946,334.26844 L 234.19196,338.79969 L 225.22321,340.70594 L 209.06696,340.83094 L 199.84821,344.73719 L 198.31696,343.11219 L 190.62946,342.95594 L 175.59821,349.01844 L 166.62946,341.95594 L 163.22321,340.45594 L 161.44196,342.01844 C 161.82648,344.32553 156.63506,342.59632 154.62946,343.79969 C 153.09832,344.71837 152.17885,346.2503 151.06696,347.36219 C 149.69953,348.72962 147.11264,350.25762 145.72321,351.29969 C 144.30969,352.35982 145.11886,355.38228 145.34821,356.29969 C 145.85356,358.32109 144.9319,360.08995 144.62946,361.29969 C 144.29094,362.65377 142.27953,363.60566 141.78571,365.58094 C 141.41749,367.05383 138.8787,368.86295 138.22321,369.51844 C 137.36522,370.37642 138.94196,374.14079 138.94196,375.20594 C 138.94196,376.75789 139.24045,379.36864 139.62946,380.92469 C 139.96135,382.25225 142.82893,383.22755 143.22321,383.42469 C 143.58463,383.6054 142.21742,386.7881 142.50446,387.36219 C 142.85431,388.06189 146.9811,388.25127 147.84821,388.42469 C 149.36214,388.72747 152.00038,389.37306 153.22321,389.86219 C 153.37304,389.92212 154.28571,394.80408 154.28571,395.20594 C 154.28571,397.56198 155.16412,399.40706 155.72321,401.64344 C 156.21432,403.60788 157.31041,404.81783 158.22321,406.64344 C 159.02806,408.25314 159.19376,410.96312 159.62946,412.70594 C 160.20609,415.01246 160.59949,416.73974 161.44196,418.42469 C 162.32204,420.18484 162.75833,421.2214 163.22321,423.08094 C 163.72446,425.08594 164.45222,427.10504 165.72321,428.79969 C 167.05069,430.56967 168.02291,433.17846 169.28571,434.86219 C 170.25761,436.15806 170.43966,439.32634 171.06696,440.58094 C 171.91083,442.26867 172.93684,444.6332 173.94196,446.64344 C 174.83295,448.42543 174.96609,451.5141 175.34821,453.42469 C 175.66046,454.98594 175.34984,457.04316 175.00446,458.42469 C 175.47634,460.78408 172.12946,461.97564 172.12946,464.14344 C 172.12946,465.75446 176.41459,465.92469 177.50446,465.92469 C 179.78016,465.92469 180.94446,468.01969 182.50446,468.79969 C 184.4972,469.79606 185.47441,469.61339 186.78571,470.92469 C 187.69336,471.83234 189.16264,472.58287 190.00446,473.42469 C 191.57553,474.99575 190.0053,476.57758 189.62946,478.08094 C 189.12083,480.11547 190.43612,482.53801 191.06696,483.79969 C 191.85819,485.38215 193.22695,487.06466 193.56696,488.42469 C 194.06565,490.41945 194.19492,492.06153 194.62946,493.79969 C 195.12784,495.79319 194.62946,498.4929 194.62946,500.58094 C 194.62946,502.03078 193.10725,504.37535 192.50446,505.58094 C 191.62396,507.34193 191.71353,509.63156 191.06696,510.92469 C 190.81956,511.41949 190.77414,512.11471 190.62946,512.83094 C 190.42084,513.86368 190.16024,514.95783 190.00446,515.58094 C 189.5813,517.27358 190.03006,519.32229 189.62946,520.92469 C 189.22871,522.52769 187.89397,523.30417 187.50446,524.86219 C 187.06679,526.61286 187.50446,529.11741 187.50446,530.92469 C 187.50446,531.94482 191.11263,533.46315 191.78571,533.79969 C 193.25037,534.53203 195.75167,534.14344 197.50446,534.14344 C 199.50888,534.14344 200.33787,533.79969 202.12946,533.79969 L 212.12946,536.64344 L 226.06696,540.58094 L 234.28571,546.64344 L 239.62946,557.70594 L 241.44196,572.01844 L 249.28571,568.79969 L 256.44196,569.14344 L 262.50446,571.29969 L 262.12946,593.79969 L 253.56696,597.70594 L 248.94196,605.58094 L 249.62946,615.92469 L 254.59821,635.83094 L 254.62946,635.92469 L 252.12946,636.29969 L 247.50446,642.36219 L 243.56696,645.58094 L 237.12946,645.20594 L 231.78571,644.86219 L 225.72321,645.20594 L 218.56696,645.92469 L 212.50446,645.92469 L 206.78571,642.01844 L 201.44196,639.51844 L 183.22321,637.36219 L 207.12946,687.01844 L 210.34821,683.42469 L 217.12946,689.14344 L 223.56696,689.51844 L 230.72321,696.29969 L 233.94196,697.01844 L 238.22321,696.29969 L 240.72321,693.42469 L 242.12946,692.70594 L 253.47321,697.23719 L 263.56696,701.29969 L 268.94196,702.36219 C 268.94197,702.36219 273.56249,702.37558 275.34821,702.01844 C 277.13392,701.6613 313.94196,693.79969 313.94196,693.79969 L 313.91071,693.89344 L 304.62946,738.08094 L 317.50446,751.64344 L 318.94196,753.42469 L 318.94196,756.29969 C 318.94197,756.2997 340.35714,761.64344 341.78571,761.64344 C 343.21428,761.64344 348.9375,760.22379 350.72321,760.58094 C 352.50893,760.93808 356.44196,758.42469 356.44196,758.42469 L 358.94196,754.14344 L 361.06696,753.42469 C 361.06696,753.42468 363.57588,754.50951 365.00446,755.58094 C 366.43303,756.65236 368.94196,757.01844 368.94196,757.01844 L 371.78571,756.64344 L 374.62946,753.79969 L 376.06696,752.01844 L 378.94196,751.64344 L 382.53571,751.98719 L 382.84821,752.01844 C 382.8482,752.01845 386.41964,750.92469 387.84821,750.92469 C 389.27677,750.92468 390.71874,750.58987 392.50446,749.51844 C 394.29017,748.44702 396.78571,747.01844 396.78571,747.01844 L 413.22321,765.20594 L 421.44196,769.86219 L 426.06696,770.58094 L 430.00446,772.01844 L 435.00446,775.58094 L 441.78571,781.29969 C 441.78571,781.29967 446.06249,783.42915 448.78571,783.51844 C 451.04326,783.59247 452.28571,783.61219 452.28571,783.61219 L 461.47321,783.39344 L 473.00446,781.20594 L 473.31696,779.04969 L 469.47321,776.11219 L 469.72321,771.08094 L 476.06696,761.14344 L 495.62946,738.33094 L 510.75446,722.04969 L 510.91071,721.11219 L 512.44196,711.39344 L 516.91071,695.39344 L 526.56696,671.29969 L 528.53571,667.70594 L 542.44196,672.36219 L 547.12946,672.86219 L 552.28571,671.51844 L 555.41071,667.39344 C 555.41072,667.39343 557.27678,662.89344 557.41071,662.58094 C 557.54464,662.26844 558.87946,655.61219 558.87946,655.61219 L 559.47321,646.39344 L 558.25446,641.92469 L 555.19196,636.76844 L 550.44196,631.14344 L 545.97321,627.86219 L 541.34821,624.86219 L 538.66071,623.01844 L 536.78571,627.79969 L 534.47321,631.11219 L 531.06696,634.95594 L 528.31696,637.64344 L 526.25446,638.70594 L 518.69196,637.89344 L 516.03571,636.54969 C 516.03572,636.54968 513.52678,635.21933 513.34821,635.17469 C 513.16964,635.13005 508.87946,633.89344 508.87946,633.89344 C 508.87947,633.89345 503.88393,633.89344 503.66071,633.89344 C 503.4375,633.89345 498.75446,634.20594 498.75446,634.20594 C 498.75446,634.20595 496.39286,635.48719 495.72321,635.48719 C 495.05358,635.48719 492.05803,635.57648 491.87946,635.48719 C 491.70089,635.3979 489.56696,634.01844 489.56696,634.01844 L 487.22321,629.33094 L 486.00446,622.54969 L 485.94196,622.17469 L 482.69196,618.64344 L 480.44196,616.51844 C 480.44197,616.51844 479.22768,614.01398 479.31696,613.61219 C 479.40624,613.2104 480.34821,611.01844 480.34821,611.01844 L 483.25446,608.79969 C 483.25447,608.7997 486.01339,606.92022 486.19196,606.83094 C 486.37053,606.74165 490.44196,603.01844 490.44196,603.01844 L 493.22321,599.64344 L 495.44196,598.89344 L 498.12946,598.95594 C 498.12946,598.95593 501.06696,600.0363 501.37946,600.08094 C 501.69197,600.12559 505.12054,600.36219 505.56696,600.36219 C 506.01338,600.3622 511.06696,600.17469 511.06696,600.17469 L 522.62946,593.39344 L 530.66071,592.36219 L 538.31696,590.98719 L 543.84821,589.42469 L 544.59821,589.14344 L 545.41071,588.79969 L 549.06696,586.54969 L 545.19196,579.20594 L 545.53571,575.83094 L 550.19196,576.29969 L 554.28571,577.39344 L 552.19196,570.70594 L 551.97321,566.23719 L 554.69196,560.92469 L 557.22321,557.01844 L 557.22321,554.58094 L 550.72321,551.61219 L 546.87946,547.67469 L 546.37946,543.73719 L 546.16071,532.17469 L 544.50446,527.86219 L 541.28571,524.23719 L 539.41071,521.70594 L 539.25446,513.73719 L 533.44196,510.98719 L 528.56696,508.26844 L 526.47321,507.04969 L 523.53571,504.86219 L 527.31696,494.73719 L 527.19196,490.17469 L 515.09821,486.95594 L 508.34821,487.76844 L 502.37946,488.48719 L 492.78571,491.45594 L 485.34821,495.64344 L 479.03571,499.17469 L 472.59821,499.04969 L 470.56696,498.79969 L 469.69196,498.67469 L 455.66071,484.89344 L 435.72321,486.92469 L 422.31696,485.64344 L 409.81696,479.70594 L 405.41071,475.48719 L 399.59821,469.86219 L 396.94196,462.92469 L 392.66071,458.39344 L 384.31696,455.98719 L 392.53571,446.26844 L 392.03571,443.23719 L 388.87946,436.26844 L 384.44196,425.79969 L 377.00446,396.89344 L 369.56696,383.36219 L 361.72321,374.67469 L 377.25446,371.39344 L 389.75446,365.20594 L 401.12946,359.51844 L 406.41071,358.76844 L 411.09821,360.39344 C 411.09822,360.39344 414.75319,365.20086 414.87946,365.70594 C 415.00573,366.21101 421.94196,381.98719 421.94196,381.98719 L 438.37946,387.79969 L 448.47321,388.29969 L 457.56696,385.39344 L 477.75446,370.98719 L 479.66071,361.64344 L 478.12946,358.48719 L 473.72321,354.08094 L 469.81696,350.17469 L 463.75446,347.64344 L 463.12946,335.01844 L 460.47321,329.58094 L 458.19196,327.70594 L 455.16071,325.42469 L 453.00446,324.01844 L 453.00446,312.92469 L 452.00446,307.23719 L 449.47321,301.29969 L 445.31696,295.48719 L 438.37946,291.95594 L 434.31696,291.20594 L 430.28571,287.01844 L 426.37946,284.14344 L 422.47321,283.11219 z "
       id="path4315" />
    <path
       style="fill:#f4e4e4;fill-opacity:1;fill-rule:evenodd;stroke:#290000;stroke-width:1.5;stroke-linecap:butt;stroke-linejoin:miter;stroke-miterlimit:4;stroke-dasharray:none;stroke-opacity:1"
       d="M 254.59821,635.83094 L 258.22321,638.08094 L 264.62946,638.42469 L 270.00446,634.86219 L 280.00446,627.01844 L 284.62946,626.64344 L 289.62946,626.29969 L 294.28571,625.20594 L 297.12946,623.08094 L 304.62946,619.86219 L 317.84821,616.29969 L 321.06696,612.36219 L 328.56696,610.20594 L 329.28571,602.01844 L 326.44196,595.92469 C 326.44196,595.92469 323.94197,583.08542 323.94196,581.29969 C 323.94196,580.40684 324.46875,578.61219 325.00446,577.04969 C 325.54017,575.48719 326.06696,574.14344 326.06696,574.14344 L 337.50446,570.92469 L 336.44196,567.70594 L 333.56696,562.70594 L 338.22321,552.36219 L 338.94196,545.92469 L 334.62946,539.51844 L 334.69196,539.42469 L 331.06696,536.64344 L 318.22321,532.70594 L 308.94196,529.86219 L 303.94196,529.14344 L 296.44196,528.79969 L 292.84821,526.29969 L 285.34821,518.42469 L 284.62946,524.14344 L 283.56696,527.70594 L 280.34821,530.92469 L 277.12946,530.92469 L 275.34821,528.79969 L 275.00446,526.64344 L 250.34821,527.01844 L 231.44196,531.29969 L 190.62946,512.83094 C 190.42084,513.86368 190.16024,514.95783 190.00446,515.58094 C 189.5813,517.27358 190.03006,519.32229 189.62946,520.92469 C 189.22871,522.52769 187.89397,523.30417 187.50446,524.86219 C 187.06679,526.61286 187.50446,529.11741 187.50446,530.92469 C 187.50446,531.94482 191.11263,533.46315 191.78571,533.79969 C 193.25037,534.53203 195.75167,534.14344 197.50446,534.14344 C 199.50888,534.14344 200.33787,533.79969 202.12946,533.79969 L 212.12946,536.64344 L 226.06696,540.58094 L 234.28571,546.64344 L 239.62946,557.70594 L 241.44196,572.01844 L 249.28571,568.79969 L 256.44196,569.14344 L 262.50446,571.29969 L 262.12946,593.79969 L 253.56696,597.70594 L 248.94196,605.58094 L 249.62946,615.92469 L 254.59821,635.83094 z "
       id="path2262" />
    <path
       style="fill:#f4e4e4;fill-opacity:1;fill-rule:evenodd;stroke:#290000;stroke-width:1.5;stroke-linecap:butt;stroke-linejoin:miter;stroke-miterlimit:4;stroke-dasharray:none;stroke-opacity:1"
       d="M 253.47321,697.23719 L 253.56696,697.01844 L 264.62946,687.01844 L 264.28571,678.08094 L 272.84821,672.70594 L 274.28571,669.86219 L 271.06696,663.42469 L 271.44196,662.01844 L 277.12946,663.42469 L 285.00446,660.92469 L 290.72321,652.36219 L 292.84821,653.08094 L 304.62946,638.79969 L 312.12946,632.36219 L 318.94196,630.58094 L 318.31696,615.73719 L 317.84821,616.29969 L 304.62946,619.86219 L 297.12946,623.08094 L 294.28571,625.20594 L 289.62946,626.29969 L 284.62946,626.64344 L 280.00446,627.01844 L 270.00446,634.86219 L 264.62946,638.42469 L 258.22321,638.08094 L 254.59821,635.83094 L 254.62946,635.92469 L 252.12946,636.29969 L 247.50446,642.36219 L 243.56696,645.58094 L 237.12946,645.20594 L 231.78571,644.86219 L 225.72321,645.20594 L 218.56696,645.92469 L 212.50446,645.92469 L 206.78571,642.01844 L 201.44196,639.51844 L 183.22321,637.36219 L 207.12946,687.01844 L 210.34821,683.42469 L 217.12946,689.14344 L 223.56696,689.51844 L 230.72321,696.29969 L 233.94196,697.01844 L 238.22321,696.29969 L 240.72321,693.42469 L 242.12946,692.70594 L 253.47321,697.23719 z "
       id="path2272" />
    <path
       style="fill:#f4e4e4;fill-opacity:1;fill-rule:evenodd;stroke:#290000;stroke-width:1.5;stroke-linecap:butt;stroke-linejoin:miter;stroke-miterlimit:4;stroke-dasharray:none;stroke-opacity:1"
       d="M 313.94196,693.79969 L 315.00446,678.42469 L 320.34821,665.58094 L 328.56696,655.92469 L 337.12946,651.29969 L 333.94196,650.58094 L 328.94196,646.64344 L 323.94196,642.70594 L 317.50446,640.20594 L 318.22321,635.92469 L 315.34821,632.01844 L 315.22321,631.54969 L 312.12946,632.36219 L 304.62946,638.79969 L 292.84821,653.08094 L 290.72321,652.36219 L 285.00446,660.92469 L 277.12946,663.42469 L 271.44196,662.01844 L 271.06696,663.42469 L 274.28571,669.86219 L 272.84821,672.70594 L 264.28571,678.08094 L 264.62946,687.01844 L 253.56696,697.01844 L 253.47321,697.23719 L 263.56696,701.29969 L 268.94196,702.36219 C 268.94197,702.36219 273.56249,702.37558 275.34821,702.01844 C 277.13392,701.6613 313.94196,693.79969 313.94196,693.79969 z "
       id="path2277" />
    <path
       style="fill:#f4e4e4;fill-opacity:1;fill-rule:evenodd;stroke:#290000;stroke-width:1.5;stroke-linecap:butt;stroke-linejoin:miter;stroke-miterlimit:4;stroke-dasharray:none;stroke-opacity:1"
       d="M 358.66071,702.83094 L 350.00446,697.70594 L 331.06696,697.70594 L 313.91071,693.89344 L 304.62946,738.08094 L 317.50446,751.64344 L 318.94196,753.42469 L 318.94196,756.29969 C 318.94197,756.2997 340.35714,761.64344 341.78571,761.64344 C 343.21428,761.64344 348.9375,760.22379 350.72321,760.58094 C 352.50893,760.93808 356.44196,758.42469 356.44196,758.42469 L 358.94196,754.14344 L 361.06696,753.42469 C 361.06696,753.42468 363.57588,754.50951 365.00446,755.58094 C 366.43303,756.65236 368.94196,757.01844 368.94196,757.01844 L 371.78571,756.64344 L 374.62946,753.79969 L 376.06696,752.01844 L 378.94196,751.64344 L 382.53571,751.98719 L 376.44196,732.01844 L 371.06696,730.20594 L 371.06696,723.79969 L 363.56696,714.14344 L 363.94196,709.86219 L 358.66071,702.83094 z "
       id="path2282" />
    <path
       style="fill:#f4e4e4;fill-opacity:1;fill-rule:evenodd;stroke:#290000;stroke-width:1.5;stroke-linecap:butt;stroke-linejoin:miter;stroke-miterlimit:4;stroke-dasharray:none;stroke-opacity:1"
       d="M 352.87946,671.42469 L 352.50446,671.29969 L 337.50446,651.29969 L 336.91071,651.42469 L 328.56696,655.92469 L 320.34821,665.58094 L 315.00446,678.42469 L 313.94196,693.79969 L 313.91071,693.89344 L 331.06696,697.70594 L 350.00446,697.70594 L 358.66071,702.83094 L 358.56696,702.70594 L 360.72321,693.42469 L 355.00446,685.20594 L 352.87946,671.42469 z "
       id="path2287" />
    <path
       style="fill:#f4e4e4;fill-opacity:1;fill-rule:evenodd;stroke:#290000;stroke-width:1.5;stroke-linecap:butt;stroke-linejoin:miter;stroke-miterlimit:4;stroke-dasharray:none;stroke-opacity:1"
       d="M 354.91071,632.14344 L 350.00446,634.14344 L 336.44196,634.86219 L 324.28571,629.86219 L 325.00446,621.64344 L 318.56696,620.58094 L 318.53571,620.58094 L 318.94196,630.58094 L 315.22321,631.54969 L 315.34821,632.01844 L 318.22321,635.92469 L 317.50446,640.20594 L 323.94196,642.70594 L 328.94196,646.64344 L 333.94196,650.58094 L 337.12946,651.29969 L 336.91071,651.42469 L 337.50446,651.29969 L 352.50446,671.29969 L 352.87946,671.42469 L 352.84821,671.29969 L 362.50446,667.70594 L 365.72321,659.51844 L 372.12946,657.01844 L 374.62946,653.79969 L 374.28571,652.01844 L 371.44196,647.70594 L 364.62946,640.58094 L 354.91071,632.14344 z "
       id="path2299" />
    <path
       style="fill:#f4e4e4;fill-opacity:1;fill-rule:evenodd;stroke:#290000;stroke-width:1.5;stroke-linecap:butt;stroke-linejoin:miter;stroke-miterlimit:4;stroke-dasharray:none;stroke-opacity:1"
       d="M 357.31696,605.95594 L 344.62946,599.51844 L 331.78571,595.92469 L 326.78571,596.64344 L 329.28571,602.01844 L 328.56696,610.20594 L 321.06696,612.36219 L 318.31696,615.73719 L 318.53571,620.58094 L 318.56696,620.58094 L 325.00446,621.64344 L 324.28571,629.86219 L 336.44196,634.86219 L 350.00446,634.14344 L 354.91071,632.14344 L 351.44196,629.14344 L 351.44196,620.58094 L 354.62946,611.29969 L 357.31696,605.95594 z "
       id="path2304" />
    <path
       style="fill:#f4e4e4;fill-opacity:1;fill-rule:evenodd;stroke:#290000;stroke-width:1.5;stroke-linecap:butt;stroke-linejoin:miter;stroke-miterlimit:4;stroke-dasharray:none;stroke-opacity:1"
       d="M 337.28571,570.23719 L 337.50446,570.92469 L 326.06696,574.14344 C 326.06696,574.14344 325.54017,575.48719 325.00446,577.04969 C 324.46875,578.61219 323.94196,580.40684 323.94196,581.29969 C 323.94197,583.08542 326.44196,595.92469 326.44196,595.92469 L 326.78571,596.64344 L 331.78571,595.92469 L 344.62946,599.51844 L 357.31696,605.95594 L 358.94196,602.70594 L 360.72321,596.29969 L 358.94196,591.64344 L 358.22321,574.79969 L 337.28571,570.23719 z "
       id="path2292" />
    <path
       style="fill:#f4e4e4;fill-opacity:1;fill-rule:evenodd;stroke:#290000;stroke-width:1.5;stroke-linecap:butt;stroke-linejoin:miter;stroke-miterlimit:4;stroke-dasharray:none;stroke-opacity:1"
       d="M 337.28571,570.23719 L 358.22321,574.79969 L 358.22321,574.51844 L 366.44196,535.92469 L 366.22321,535.29969 L 366.06696,535.92469 L 363.22321,532.70594 L 358.56696,533.42469 L 351.78571,532.01844 L 346.44196,534.51844 L 340.00446,535.58094 L 335.72321,540.20594 L 334.69196,539.42469 L 334.62946,539.51844 L 338.94196,545.92469 L 338.22321,552.36219 L 333.56696,562.70594 L 336.44196,567.70594 L 337.28571,570.23719 z "
       id="path2267" />
    <path
       style="fill:#f4e4e4;fill-opacity:1;fill-rule:evenodd;stroke:#290000;stroke-width:1.5;stroke-linecap:butt;stroke-linejoin:miter;stroke-miterlimit:4;stroke-dasharray:none;stroke-opacity:1"
       d="M 374.50446,653.11219 L 374.62946,653.08094 L 391.78571,626.29969 L 393.56696,618.42469 L 387.12946,615.58094 L 357.12946,613.79969 L 353.56696,615.58094 L 353.09821,615.73719 L 351.44196,620.58094 L 351.44196,629.14344 L 364.62946,640.58094 L 371.44196,647.70594 L 374.28571,652.01844 L 374.50446,653.11219 z "
       id="path2309" />
    <path
       style="fill:#f4e4e4;fill-opacity:1;fill-rule:evenodd;stroke:#290000;stroke-width:1.5;stroke-linecap:butt;stroke-linejoin:miter;stroke-miterlimit:4;stroke-dasharray:none;stroke-opacity:1"
       d="M 358.72321,586.42469 L 358.94196,591.64344 L 360.72321,596.29969 L 358.94196,602.70594 L 354.62946,611.29969 L 353.09821,615.73719 L 353.56696,615.58094 L 357.12946,613.79969 L 387.12946,615.58094 L 393.56696,618.42469 L 393.25446,619.86219 L 393.56696,619.86219 L 393.94196,612.70594 L 392.12946,601.64344 L 395.34821,591.64344 L 394.00446,580.67469 L 373.22321,590.20594 L 358.72321,586.42469 z "
       id="path2319" />
    <path
       style="fill:#f4e4e4;fill-opacity:1;fill-rule:evenodd;stroke:#290000;stroke-width:1.5;stroke-linecap:butt;stroke-linejoin:miter;stroke-miterlimit:4;stroke-dasharray:none;stroke-opacity:1"
       d="M 358.72321,586.42469 L 373.22321,590.20594 L 394.00446,580.67469 L 393.94196,580.20594 L 391.78571,569.51844 L 391.78571,554.51844 L 386.78571,545.58094 L 382.84821,527.36219 L 384.62946,519.58094 L 370.00446,521.64344 L 366.22321,535.29969 L 366.44196,535.92469 L 358.22321,574.51844 L 358.72321,586.42469 z "
       id="path2314" />
    <path
       style="fill:#f4e4e4;fill-opacity:1;fill-rule:evenodd;stroke:#290000;stroke-width:1.5;stroke-linecap:butt;stroke-linejoin:miter;stroke-miterlimit:4;stroke-dasharray:none;stroke-opacity:1"
       d="M 510.91071,721.11219 L 496.78571,715.92469 L 479.28571,703.42469 L 472.84821,702.70594 L 457.50446,691.29969 L 458.22321,683.08094 L 460.00446,679.51844 L 456.44196,678.42469 L 456.06696,673.79969 L 432.50446,664.86219 L 427.84821,677.36219 L 394.62946,684.51844 L 390.34821,691.29969 L 382.84821,699.86219 L 371.06696,703.42469 L 358.84821,703.08094 L 363.94196,709.86219 L 363.56696,714.14344 L 371.06696,723.79969 L 371.06696,730.20594 L 376.44196,732.01844 L 382.53571,751.98719 L 382.84821,752.01844 C 382.8482,752.01845 386.41964,750.92469 387.84821,750.92469 C 389.27677,750.92468 390.71874,750.58987 392.50446,749.51844 C 394.29017,748.44702 396.78571,747.01844 396.78571,747.01844 L 413.22321,765.20594 L 421.44196,769.86219 L 426.06696,770.58094 L 430.00446,772.01844 L 435.00446,775.58094 L 441.78571,781.29969 C 441.78571,781.29967 446.06249,783.42915 448.78571,783.51844 C 451.04326,783.59247 452.28571,783.61219 452.28571,783.61219 L 461.47321,783.39344 L 473.00446,781.20594 L 473.31696,779.04969 L 469.47321,776.11219 L 469.72321,771.08094 L 476.06696,761.14344 L 495.62946,738.33094 L 510.75446,722.04969 L 510.91071,721.11219 z "
       id="path2324" />
    <path
       style="fill:#f4e4e4;fill-opacity:1;fill-rule:evenodd;stroke:#290000;stroke-width:1.5;stroke-linecap:butt;stroke-linejoin:miter;stroke-miterlimit:4;stroke-dasharray:none;stroke-opacity:1"
       d="M 432.78571,664.95594 L 432.50446,664.51844 L 417.84821,659.14344 L 407.50446,653.79969 L 401.44196,644.14344 L 397.12946,639.86219 L 393.22321,638.08094 L 385.03571,636.86219 L 374.62946,653.08094 L 374.50446,653.11219 L 374.62946,653.79969 L 372.12946,657.01844 L 365.72321,659.51844 L 362.50446,667.70594 L 352.84821,671.29969 L 355.00446,685.20594 L 360.72321,693.42469 L 358.56696,702.70594 L 358.84821,703.08094 L 371.06696,703.42469 L 382.84821,699.86219 L 390.34821,691.29969 L 394.62946,684.51844 L 427.84821,677.36219 L 432.50446,664.86219 L 432.78571,664.95594 z "
       id="path2329" />
    <path
       style="fill:#f4e4e4;fill-opacity:1;fill-rule:evenodd;stroke:#290000;stroke-width:1.5;stroke-linecap:butt;stroke-linejoin:miter;stroke-miterlimit:4;stroke-dasharray:none;stroke-opacity:1"
       d="M 425.72321,662.01844 L 439.28571,629.51844 L 433.22321,627.01844 L 413.56696,627.01844 L 404.28571,625.92469 L 401.78571,624.51844 L 401.06696,621.29969 L 393.62946,618.58094 L 393.56696,619.86219 L 393.25446,619.86219 L 391.78571,626.29969 L 385.03571,636.86219 L 393.22321,638.08094 L 397.12946,639.86219 L 401.44196,644.14344 L 407.50446,653.79969 L 417.84821,659.14344 L 425.72321,662.01844 z "
       id="path2334" />
    <path
       style="fill:#f4e4e4;fill-opacity:1;fill-rule:evenodd;stroke:#290000;stroke-width:1.5;stroke-linecap:butt;stroke-linejoin:miter;stroke-miterlimit:4;stroke-dasharray:none;stroke-opacity:1"
       d="M 438.62946,629.26844 L 421.06696,593.42469 L 421.78571,591.64344 L 423.56696,590.20594 L 422.84821,588.08094 L 415.72321,581.64344 L 402.50446,558.79969 L 394.28571,550.92469 L 392.50446,532.70594 L 393.94196,527.36219 L 398.94196,523.42469 C 398.94196,523.42469 387.8078,520.30882 385.06696,519.36219 L 385.00446,519.51844 L 384.62946,519.58094 L 382.84821,527.36219 L 386.78571,545.58094 L 391.78571,554.51844 L 391.78571,569.51844 L 393.94196,580.20594 L 395.34821,591.64344 L 392.12946,601.64344 L 393.94196,612.70594 L 393.62946,618.58094 L 401.06696,621.29969 L 401.78571,624.51844 L 404.28571,625.92469 L 413.56696,627.01844 L 433.22321,627.01844 L 438.62946,629.26844 z "
       id="path2339" />
    <path
       style="fill:#f4e4e4;fill-opacity:1;fill-rule:evenodd;stroke:#290000;stroke-width:1.5;stroke-linecap:butt;stroke-linejoin:miter;stroke-miterlimit:4;stroke-dasharray:none;stroke-opacity:1"
       d="M 470.56696,498.79969 L 470.34821,501.29969 L 471.78571,504.14344 L 473.94196,507.70594 L 473.94196,509.86219 L 470.34821,514.14344 L 457.50446,519.51844 L 453.94196,524.14344 L 452.12946,530.20594 L 441.78571,535.92469 L 439.28571,539.14344 L 440.72321,543.08094 L 440.00446,547.01844 L 436.78571,545.92469 L 438.22321,549.14344 L 446.78571,563.79969 L 457.84821,570.20594 L 462.12946,572.01844 L 462.50446,577.70594 L 501.78571,581.29969 L 530.34821,585.20594 L 544.59821,589.14344 L 545.41071,588.79969 L 549.06696,586.54969 L 545.19196,579.20594 L 545.53571,575.83094 L 550.19196,576.29969 L 554.28571,577.39344 L 552.19196,570.70594 L 551.97321,566.23719 L 554.69196,560.92469 L 557.22321,557.01844 L 557.22321,554.58094 L 550.72321,551.61219 L 546.87946,547.67469 L 546.37946,543.73719 L 546.16071,532.17469 L 544.50446,527.86219 L 541.28571,524.23719 L 539.41071,521.70594 L 539.25446,513.73719 L 533.44196,510.98719 L 528.56696,508.26844 L 526.47321,507.04969 L 523.53571,504.86219 L 527.31696,494.73719 L 527.19196,490.17469 L 515.09821,486.95594 L 508.34821,487.76844 L 502.37946,488.48719 L 492.78571,491.45594 L 485.34821,495.64344 L 479.03571,499.17469 L 472.59821,499.04969 L 470.56696,498.79969 z "
       id="path2344" />
    <path
       style="fill:#f4e4e4;fill-opacity:1;fill-rule:evenodd;stroke:#290000;stroke-width:1.5;stroke-linecap:butt;stroke-linejoin:miter;stroke-miterlimit:4;stroke-dasharray:none;stroke-opacity:1"
       d="M 486.00446,622.54969 L 473.94196,642.36219 L 451.06696,630.92469 L 450.72321,624.86219 L 439.09821,629.45594 L 439.28571,629.51844 L 425.72321,662.01844 L 432.50446,664.51844 L 432.78571,664.95594 L 456.06696,673.79969 L 456.44196,678.42469 L 460.00446,679.51844 L 458.22321,683.08094 L 457.50446,691.29969 L 472.84821,702.70594 L 479.28571,703.42469 L 496.78571,715.92469 L 510.91071,721.11219 L 512.44196,711.39344 L 516.91071,695.39344 L 526.56696,671.29969 L 528.53571,667.70594 L 542.44196,672.36219 L 547.12946,672.86219 L 552.28571,671.51844 L 555.41071,667.39344 C 555.41072,667.39343 557.27678,662.89344 557.41071,662.58094 C 557.54464,662.26844 558.87946,655.61219 558.87946,655.61219 L 559.47321,646.39344 L 558.25446,641.92469 L 555.19196,636.76844 L 550.44196,631.14344 L 545.97321,627.86219 L 541.34821,624.86219 L 538.66071,623.01844 L 536.78571,627.79969 L 534.47321,631.11219 L 531.06696,634.95594 L 528.31696,637.64344 L 526.25446,638.70594 L 518.69196,637.89344 L 516.03571,636.54969 C 516.03572,636.54968 513.52678,635.21933 513.34821,635.17469 C 513.16964,635.13005 508.87946,633.89344 508.87946,633.89344 C 508.87947,633.89345 503.88393,633.89344 503.66071,633.89344 C 503.4375,633.89345 498.75446,634.20594 498.75446,634.20594 C 498.75446,634.20595 496.39286,635.48719 495.72321,635.48719 C 495.05358,635.48719 492.05803,635.57648 491.87946,635.48719 C 491.70089,635.3979 489.56696,634.01844 489.56696,634.01844 L 487.22321,629.33094 L 486.00446,622.54969 z "
       id="path2354" />
    <path
       style="fill:#f4e4e4;fill-opacity:1;fill-rule:evenodd;stroke:#290000;stroke-width:1.5;stroke-linecap:butt;stroke-linejoin:miter;stroke-miterlimit:4;stroke-dasharray:none;stroke-opacity:1"
       d="M 412.03571,575.23719 L 415.72321,581.64344 L 422.84821,588.08094 L 423.56696,590.20594 L 421.78571,591.64344 L 421.06696,593.42469 L 438.62946,629.26844 L 439.09821,629.45594 L 450.72321,624.86219 L 451.06696,630.92469 L 473.94196,642.36219 L 486.00446,622.54969 L 485.94196,622.17469 L 482.69196,618.64344 L 480.44196,616.51844 C 480.44197,616.51844 479.22768,614.01398 479.31696,613.61219 C 479.40624,613.2104 480.34821,611.01844 480.34821,611.01844 L 483.25446,608.79969 C 483.25447,608.7997 486.01339,606.92022 486.19196,606.83094 C 486.37053,606.74165 490.44196,603.01844 490.44196,603.01844 L 493.22321,599.64344 L 495.44196,598.89344 L 498.12946,598.95594 C 498.12946,598.95593 501.06696,600.0363 501.37946,600.08094 C 501.69197,600.12559 505.12054,600.36219 505.56696,600.36219 C 506.01338,600.3622 511.06696,600.17469 511.06696,600.17469 L 522.62946,593.39344 L 530.66071,592.36219 L 538.31696,590.98719 L 543.84821,589.42469 L 544.59821,589.14344 L 530.34821,585.20594 L 501.78571,581.29969 L 462.50446,577.70594 L 412.03571,575.23719 z "
       id="path2349" />
    <path
       style="fill:#f4e4e4;fill-opacity:1;fill-rule:evenodd;stroke:#290000;stroke-width:1.5;stroke-linecap:butt;stroke-linejoin:miter;stroke-miterlimit:4;stroke-dasharray:none;stroke-opacity:1"
       d="M 412.03571,575.23719 L 462.50446,577.70594 L 462.12946,572.01844 L 457.84821,570.20594 L 446.78571,563.79969 L 438.22321,549.14344 L 436.78571,545.92469 L 440.00446,547.01844 L 440.72321,543.08094 L 439.28571,539.14344 L 441.78571,535.92469 L 452.12946,530.20594 L 453.94196,524.14344 L 457.50446,519.51844 L 470.34821,514.14344 L 473.94196,509.86219 L 473.94196,507.70594 L 471.78571,504.14344 L 470.34821,501.29969 L 470.56696,498.79969 L 469.69196,498.67469 L 455.66071,484.89344 L 435.72321,486.92469 L 422.31696,485.64344 L 409.81696,479.70594 L 405.41071,475.48719 L 406.06696,483.79969 L 403.22321,492.36219 L 399.62946,498.08094 L 391.44196,503.08094 L 388.56696,508.08094 L 385.06696,519.36219 C 387.8078,520.30882 398.94196,523.42469 398.94196,523.42469 L 393.94196,527.36219 L 392.50446,532.70594 L 394.28571,550.92469 L 402.50446,558.79969 L 412.03571,575.23719 z "
       id="path2239" />
    <path
       style="fill:#f4e4e4;fill-opacity:1;fill-rule:evenodd;stroke:#290000;stroke-width:1.5;stroke-linecap:butt;stroke-linejoin:miter;stroke-miterlimit:4;stroke-dasharray:none;stroke-opacity:1"
       d="M 190.62946,512.83094 L 231.44196,531.29969 L 250.34821,527.01844 L 275.00446,526.64344 L 275.34821,528.79969 L 277.12946,530.92469 L 280.34821,530.92469 L 283.56696,527.70594 L 284.62946,524.14344 L 285.34821,518.42469 L 292.84821,526.29969 L 296.44196,528.79969 L 303.94196,529.14344 L 308.94196,529.86219 L 318.22321,532.70594 L 331.06696,536.64344 L 335.72321,540.20594 L 340.00446,535.58094 L 346.44196,534.51844 L 351.78571,532.01844 L 358.56696,533.42469 L 363.22321,532.70594 L 366.06696,535.92469 L 370.00446,521.64344 L 385.00446,519.51844 L 388.56696,508.08094 L 391.44196,503.08094 L 399.62946,498.08094 L 403.22321,492.36219 L 406.06696,483.79969 L 405.41071,475.48719 L 399.59821,469.86219 L 396.94196,462.92469 L 392.66071,458.39344 L 384.31696,455.98719 L 392.53571,446.26844 L 392.03571,443.23719 L 388.87946,436.26844 L 384.44196,425.79969 L 377.00446,396.89344 L 369.56696,383.36219 L 361.72321,374.67469 L 377.25446,371.39344 L 389.75446,365.20594 L 401.12946,359.51844 L 406.41071,358.76844 L 411.09821,360.39344 C 411.09822,360.39344 414.75319,365.20086 414.87946,365.70594 C 415.00573,366.21101 421.94196,381.98719 421.94196,381.98719 L 438.37946,387.79969 L 448.47321,388.29969 L 457.56696,385.39344 L 477.75446,370.98719 L 479.66071,361.64344 L 478.12946,358.48719 L 473.72321,354.08094 L 469.81696,350.17469 L 463.75446,347.64344 L 463.12946,335.01844 L 460.47321,329.58094 L 458.19196,327.70594 L 455.16071,325.42469 L 453.00446,324.01844 L 453.00446,312.92469 L 452.00446,307.23719 L 449.47321,301.29969 L 445.31696,295.48719 L 438.37946,291.95594 L 434.31696,291.20594 L 430.28571,287.01844 L 426.37946,284.14344 L 422.47321,283.11219 L 417.66071,284.01844 L 413.12946,288.42469 L 409.81696,295.61219 L 407.31696,312.92469 L 405.53571,316.33094 L 403.62946,318.61219 L 399.72321,320.36219 L 393.41071,323.76844 L 386.59821,328.08094 L 380.66071,333.36219 C 380.6607,333.36219 378.13327,337.28953 377.75446,338.29969 C 377.37565,339.30984 375.59821,343.73719 375.59821,343.73719 C 375.59822,343.73719 374.60201,348.38582 374.22321,349.14344 C 373.84439,349.90105 371.56696,354.70594 371.56696,354.70594 L 366.37946,360.39344 L 363.50446,362.67469 L 357.03571,367.83094 L 337.22321,367.58094 L 328.00446,363.42469 L 319.81696,362.92469 L 313.34821,355.73719 L 301.09821,348.01844 L 286.59821,340.95594 L 270.81696,334.39344 L 266.00446,336.01844 L 258.06696,336.64344 L 245.81696,336.26844 L 244.66071,335.39344 L 247.31696,327.70594 L 242.00446,323.76844 L 237.59821,320.23719 L 233.06696,320.48719 L 233.81696,324.26844 L 239.62946,334.26844 L 234.19196,338.79969 L 225.22321,340.70594 L 209.06696,340.83094 L 199.84821,344.73719 L 198.31696,343.11219 L 190.62946,342.95594 L 175.59821,349.01844 L 166.62946,341.95594 L 163.22321,340.45594 L 161.44196,342.01844 C 161.82648,344.32553 156.63506,342.59632 154.62946,343.79969 C 153.09832,344.71837 152.17885,346.2503 151.06696,347.36219 C 149.69953,348.72962 147.11264,350.25762 145.72321,351.29969 C 144.30969,352.35982 145.11886,355.38228 145.34821,356.29969 C 145.85356,358.32109 144.9319,360.08995 144.62946,361.29969 C 144.29094,362.65377 142.27953,363.60566 141.78571,365.58094 C 141.41749,367.05383 138.8787,368.86295 138.22321,369.51844 C 137.36522,370.37642 138.94196,374.14079 138.94196,375.20594 C 138.94196,376.75789 139.24045,379.36864 139.62946,380.92469 C 139.96135,382.25225 142.82893,383.22755 143.22321,383.42469 C 143.58463,383.6054 142.21742,386.7881 142.50446,387.36219 C 142.85431,388.06189 146.9811,388.25127 147.84821,388.42469 C 149.36214,388.72747 152.00038,389.37306 153.22321,389.86219 C 153.37304,389.92212 154.28571,394.80408 154.28571,395.20594 C 154.28571,397.56198 155.16412,399.40706 155.72321,401.64344 C 156.21432,403.60788 157.31041,404.81783 158.22321,406.64344 C 159.02806,408.25314 159.19376,410.96312 159.62946,412.70594 C 160.20609,415.01246 160.59949,416.73974 161.44196,418.42469 C 162.32204,420.18484 162.75833,421.2214 163.22321,423.08094 C 163.72446,425.08594 164.45222,427.10504 165.72321,428.79969 C 167.05069,430.56967 168.02291,433.17846 169.28571,434.86219 C 170.25761,436.15806 170.43966,439.32634 171.06696,440.58094 C 171.91083,442.26867 172.93684,444.6332 173.94196,446.64344 C 174.83295,448.42543 174.96609,451.5141 175.34821,453.42469 C 175.66046,454.98594 175.34984,457.04316 175.00446,458.42469 C 175.47634,460.78408 172.12946,461.97564 172.12946,464.14344 C 172.12946,465.75446 176.41459,465.92469 177.50446,465.92469 C 179.78016,465.92469 180.94446,468.01969 182.50446,468.79969 C 184.4972,469.79606 185.47441,469.61339 186.78571,470.92469 C 187.69336,471.83234 189.16264,472.58287 190.00446,473.42469 C 191.57553,474.99575 190.0053,476.57758 189.62946,478.08094 C 189.12083,480.11547 190.43612,482.53801 191.06696,483.79969 C 191.85819,485.38215 193.22695,487.06466 193.56696,488.42469 C 194.06565,490.41945 194.19492,492.06153 194.62946,493.79969 C 195.12784,495.79319 194.62946,498.4929 194.62946,500.58094 C 194.62946,502.03078 193.10725,504.37535 192.50446,505.58094 C 191.62396,507.34193 191.71353,509.63156 191.06696,510.92469 C 190.81956,511.41949 190.77414,512.11471 190.62946,512.83094 z "
       id="path2234" />
  </g>
</svg>
